<svg xmlns="http://www.w3.org/2000/svg" width="1024px" height="1536px" viewBox="0 0 1024 1536" version="1.1" transform="rotate(0) scale(1, 1)"><path d="M 500.980 306.863 C 498.494 307.836, 490.668 312.354, 483.590 316.903 C 476.511 321.452, 463.920 329.337, 455.610 334.424 C 447.299 339.512, 432.175 348.837, 422 355.146 C 411.825 361.455, 387.300 376.659, 367.500 388.932 C 347.700 401.204, 328.800 412.935, 325.500 415 C 322.200 417.065, 312.975 422.786, 305 427.713 C 297.025 432.641, 281.050 442.530, 269.500 449.689 C 257.950 456.849, 233.650 471.841, 215.500 483.007 C 150.791 522.814, 155 519.888, 155 525.060 C 155 527.097, 155.918 528.585, 158.250 530.329 C 164.486 534.993, 212.538 563.370, 217.261 565.178 C 223.229 567.462, 231.665 567.515, 237.230 565.302 C 239.578 564.368, 248.925 558.821, 258 552.976 C 267.075 547.130, 285.525 535.231, 299 526.534 C 312.475 517.837, 329.575 506.800, 337 502.009 C 357.423 488.830, 417.850 449.741, 432 440.556 C 451.618 427.821, 454.413 426.080, 454.731 426.397 C 454.894 426.561, 452.632 430.926, 449.703 436.097 C 446.774 441.269, 443.018 447.975, 441.355 451 C 420.122 489.632, 380.783 560.543, 357.588 601.997 C 350.665 614.371, 345 625.265, 345 626.208 C 345 628.486, 348.870 632, 351.378 632 C 353.496 632, 366.607 628.141, 402.500 616.953 C 414.600 613.181, 438.675 605.830, 456 600.617 C 537.531 576.086, 575.749 564.503, 590 560.006 C 621.796 549.971, 666.245 536.912, 666.781 537.447 C 666.951 537.618, 665.046 538.955, 662.548 540.419 C 660.050 541.883, 649.567 548.777, 639.253 555.740 C 628.939 562.702, 608.789 576.296, 594.476 585.949 C 508.999 643.594, 456.003 680.283, 451.678 684.808 C 449.501 687.085, 448.929 688.532, 449.178 691.130 C 449.448 693.961, 450.380 695.085, 455 698.153 C 462.863 703.375, 507.961 730.306, 511.297 731.771 C 515.908 733.797, 523.508 733.283, 528.829 730.587 C 531.448 729.260, 543.695 721.693, 556.045 713.771 C 568.395 705.850, 587.275 693.809, 598 687.014 C 620.916 672.495, 654.422 651.188, 679 635.504 C 688.625 629.362, 705.050 618.934, 715.500 612.332 C 725.950 605.729, 749.125 591.085, 767 579.790 C 838.139 534.838, 859.479 521.142, 861.690 519.013 C 864.975 515.851, 864.646 512.582, 860.750 509.686 C 858.962 508.357, 846.700 500.847, 833.500 492.998 C 820.300 485.148, 799.375 472.628, 787 465.175 C 774.625 457.723, 762.250 450.730, 759.500 449.637 C 751.695 446.533, 741.141 446.946, 726.500 450.928 C 702.862 457.358, 638.765 475.353, 598 487.005 C 551.110 500.408, 527.662 506.834, 527.154 506.422 C 526.964 506.268, 529.261 501.722, 532.260 496.321 C 535.258 490.919, 540.091 482, 542.999 476.500 C 545.907 471, 549.739 463.800, 551.514 460.500 C 587.458 393.670, 604 361.814, 604 359.424 C 604 356.463, 600.008 352.151, 594.223 348.864 C 591.075 347.076, 575 337.534, 558.500 327.660 C 542 317.786, 526.250 308.653, 523.500 307.364 C 517.308 304.461, 507.665 304.246, 500.980 306.863 M 127.557 564.223 C 126.159 566.217, 126 588.542, 126 782.185 L 126 997.925 128.103 1003.544 C 131.080 1011.503, 134.593 1014.997, 147.847 1023.179 C 154.256 1027.136, 178.175 1042.063, 201 1056.350 C 223.825 1070.638, 247 1085.105, 252.500 1088.500 C 267.678 1097.870, 293.863 1114.257, 387.235 1172.816 C 422.384 1194.860, 429.312 1198.128, 441.360 1198.344 C 449.421 1198.489, 455.272 1196.720, 462 1192.105 C 469.092 1187.241, 474.465 1180.161, 477.257 1172 C 479.440 1165.623, 479.488 1164.416, 479.785 1108 C 480.141 1040.529, 479.248 1027.747, 472.834 1008.500 C 466.325 988.966, 452.002 967.202, 439.249 957.464 L 434.994 954.215 441.747 951.531 C 464.257 942.586, 474.663 931.693, 478.576 912.976 C 479.904 906.628, 480.082 898.181, 479.755 857 C 479.389 810.703, 479.271 808.137, 477.163 800.500 C 469.952 774.372, 458.866 757.711, 437.500 740.891 C 425.745 731.637, 429.868 734.182, 358 691.817 C 344.525 683.874, 328.550 674.527, 322.500 671.047 C 316.450 667.566, 305.650 661.254, 298.500 657.020 C 258.551 633.361, 225.603 614.043, 170.842 582.171 C 133.712 560.561, 130.930 559.407, 127.557 564.223 M 204.984 693.643 C 204.810 703.134, 205.022 787.335, 205.220 787.483 C 205.374 787.598, 232.500 803.800, 265.500 823.487 C 298.500 843.175, 327.525 860.524, 330 862.042 C 362.384 881.903, 379.705 891, 385.136 891 C 388.755 891, 394.034 887.831, 395.771 884.615 C 397.169 882.028, 397.518 877.706, 397.825 859.134 C 398.277 831.911, 397.259 823.445, 392.278 813 C 386.155 800.158, 381.570 796.570, 339.929 772.036 C 319.893 760.231, 298.100 747.366, 291.500 743.447 C 284.900 739.528, 272.750 732.356, 264.500 727.508 C 256.250 722.661, 240.217 713.145, 228.872 706.363 C 207.263 693.445, 205.010 692.245, 204.984 693.643 M 204.989 868.743 C 204.983 869.159, 204.871 890.494, 204.739 916.154 L 204.500 962.807 220.500 972.738 C 229.300 978.199, 253.150 993.029, 273.500 1005.692 C 309.920 1028.355, 330.997 1041.374, 368.480 1064.361 C 379.972 1071.408, 388.491 1076, 390.075 1076 C 394.856 1076, 396.227 1073.085, 397.251 1060.745 C 398.499 1045.694, 397.485 1014.189, 395.511 1006.661 C 392.163 993.898, 385.948 982.797, 377.772 974.980 C 375.171 972.493, 365.721 966.010, 356.772 960.573 C 347.822 955.136, 331.275 945.058, 320 938.178 C 284.597 916.574, 259.061 901.032, 242.500 891.007 C 233.700 885.681, 221.662 878.322, 215.750 874.655 C 209.838 870.987, 204.995 868.327, 204.989 868.743" stroke="none" fill="#daff34" fill-rule="evenodd"/><path d="M 879.962 557.828 C 869.932 564.006, 849.822 576.704, 805 605.164 C 789.875 614.767, 770.406 627.096, 761.735 632.562 C 753.065 638.028, 732.590 650.973, 716.235 661.329 C 699.881 671.684, 681.100 683.569, 674.500 687.739 C 667.900 691.909, 653.500 701.041, 642.500 708.031 C 620.960 721.720, 586.379 743.575, 573.616 751.565 C 563.387 757.968, 557.450 763.246, 554.708 768.372 L 552.500 772.500 552.190 868 C 551.870 966.164, 552.001 970.144, 555.771 977.500 C 566.154 997.756, 595.036 1006.644, 622 997.882 C 630.494 995.122, 642.086 989.254, 652.847 982.268 C 661.533 976.629, 715.508 940.928, 778 899.486 C 796.425 887.268, 812.541 876.729, 813.814 876.066 C 818.932 873.401, 819 873.914, 819 915.475 C 819 953.479, 818.987 953.724, 816.750 956.992 C 814.212 960.701, 815.283 959.970, 676 1053.149 C 621.275 1089.760, 571.708 1122.940, 565.852 1126.882 C 558.268 1131.987, 554.743 1135.021, 553.602 1137.426 C 552.208 1140.363, 552 1146.507, 552 1184.701 C 552 1217.511, 552.303 1228.903, 553.200 1229.800 C 553.860 1230.460, 555.678 1231, 557.241 1231 C 560.234 1231, 572.465 1222.531, 662 1158.460 C 685.925 1141.340, 740.600 1102.222, 783.500 1071.531 C 826.400 1040.841, 864.004 1013.804, 867.064 1011.450 C 880.163 1001.373, 888.858 988.590, 894.240 971.500 C 896.419 964.580, 896.448 963.625, 896.770 888 C 897.113 807.102, 896.929 803.001, 892.522 793.304 C 885.762 778.431, 867.743 769.760, 850.139 772.906 C 840.140 774.693, 831.103 779.467, 803.281 797.662 C 789.960 806.373, 771.746 818.225, 762.805 824 C 753.863 829.775, 735.962 841.414, 723.024 849.865 C 637.998 905.400, 643.453 902.054, 639.938 900.829 C 637.816 900.089, 636.904 898.992, 636.475 896.662 C 636.155 894.923, 636.030 875.050, 636.197 852.500 L 636.500 811.500 639.212 807.330 C 640.704 805.036, 643.404 802.049, 645.212 800.692 C 651.075 796.292, 813.384 691.174, 815.668 690.297 C 816.749 689.882, 817 693.451, 817 709.238 C 817 726.813, 817.176 728.850, 818.829 730.345 C 822.716 733.863, 824.963 732.712, 863.500 707.468 C 886.125 692.647, 891.847 686.363, 895.505 672.320 C 896.744 667.561, 897 657.140, 897 611.362 L 897 556.145 894.365 554.073 C 892.916 552.933, 891.211 552, 890.577 552 C 889.942 552, 885.166 554.623, 879.962 557.828" stroke="none" fill="#daff34" fill-rule="evenodd"/></svg>